<svg width="886" height="1024" viewBox="0 0 886 1024" fill="none" xmlns="http://www.w3.org/2000/svg">
<g clip-path="url(#clip0_3:27)">
<path d="M468.017 1009.54C452.538 1018.49 433.462 1018.49 417.983 1009.54L24.9828 782.437C9.52244 773.503 -2.33417e-05 757.002 -2.49028e-05 739.146L-6.46182e-05 284.854C-6.61792e-05 266.998 9.52239 250.497 24.9828 241.563L417.983 14.4569C433.462 5.51206 452.538 5.51206 468.017 14.4569L861.017 241.563C876.477 250.497 886 266.998 886 284.854L886 739.146C886 757.002 876.478 773.503 861.017 782.437L468.017 1009.54Z" fill="#FFFDFD"/>
<path d="M88 307.331L443 102.63L798 307.331V716.669L443 921.37L88 716.669V307.331Z" stroke="#1D1D1D" stroke-width="60"/>
<path d="M523.833 398.925L572.35 447.442L678.926 447.281C681.946 447.268 684.937 447.854 687.729 449.004C690.521 450.153 693.058 451.844 695.193 453.979C697.327 456.114 699.019 458.651 700.168 461.443C701.318 464.234 701.904 467.226 701.891 470.246L701.729 553.857C701.711 559.899 699.303 565.689 695.031 569.961C690.758 574.234 684.969 576.642 678.926 576.66L604.695 576.822L475.315 447.442L442.97 479.787C438.681 484.077 432.864 486.486 426.798 486.486C420.732 486.486 414.915 484.077 410.626 479.787C406.336 475.498 403.927 469.681 403.927 463.615C403.927 457.549 406.336 451.732 410.626 447.442L459.143 398.925C467.721 390.347 479.356 385.527 491.488 385.527C503.619 385.527 515.254 390.347 523.833 398.925ZM345.936 382.753L281.246 447.442L207.176 447.442C201.134 447.46 195.344 449.869 191.072 454.141C186.799 458.414 184.391 464.203 184.373 470.246L184.211 553.857C184.199 556.876 184.785 559.868 185.934 562.66C187.084 565.452 188.775 567.988 190.91 570.123C193.045 572.258 195.582 573.949 198.373 575.099C201.165 576.249 204.157 576.834 207.176 576.822L345.936 576.822L410.626 641.512C414.915 645.801 420.732 648.211 426.798 648.211C432.864 648.211 438.681 645.801 442.97 641.512L459.143 625.339L475.315 641.512C479.605 645.801 485.422 648.211 491.488 648.211C497.554 648.211 503.371 645.801 507.66 641.512L523.833 625.339L540.005 641.512C544.294 645.801 550.112 648.211 556.178 648.211C562.243 648.211 568.061 645.801 572.35 641.512L588.522 625.339L475.315 512.132L459.143 528.305C450.564 536.883 438.93 541.702 426.798 541.702C414.666 541.702 403.032 536.883 394.453 528.305L362.108 495.96C353.53 487.381 348.711 475.747 348.711 463.615C348.711 451.483 353.53 439.848 362.108 431.27L410.626 382.753L345.936 382.753Z" fill="#1D1D1D"/>
</g>
<defs>
<clipPath id="clip0_3:27">
<rect width="886" height="1024" fill="white"/>
</clipPath>
</defs>
</svg>
